<?xml version="1.0" encoding="iso-8859-1"?>
<!-- Generator: Adobe Illustrator 16.0.0, SVG Export Plug-In . SVG Version: 6.00 Build 0)  -->
<!DOCTYPE svg PUBLIC "-//W3C//DTD SVG 1.1//EN" "http://www.w3.org/Graphics/SVG/1.1/DTD/svg11.dtd">
<svg version="1.1" id="Capa_1" xmlns="http://www.w3.org/2000/svg" xmlns:xlink="http://www.w3.org/1999/xlink" x="0px" y="0px"
	 width="17" height="16" viewBox="0 0 122.943 122.943" style="enable-background:new 0 0 122.943 122.943;"
	 xml:space="preserve">
<g>
	<g>
		<circle cx="21.256" cy="29.111" r="8.411"/>
		<circle cx="52.083" cy="58.044" r="5.375"/>
		<circle cx="101.759" cy="29.111" r="8.411"/>
		<circle cx="70.931" cy="58.044" r="5.375"/>
		<path d="M122.743,60.071c-5.373-14.741-13.617-19.461-14.504-19.933c-0.337-0.218-0.676-0.43-1.019-0.64
			c-0.288-0.176-2.529-1.282-3.365-1.487l-2.097,2.109l-2.031-2.133c-0.006,0.001-0.015,0.002-0.021,0.004
			c-1.07,0.257-2.124,0.71-3.062,1.328c-0.177,0.069-0.351,0.147-0.519,0.25c-6.381,3.914-10.124,12.019-14.865,22.281
			c-0.553,1.197-0.314,2.558,0.493,3.498c-2.575,2.246-8.951-1.486-9.486-1.617l-1.339,1.348l-1.299-1.363
			c-0.004,0.002-0.008,0.004-0.014,0.004c-0.914,0.217-3.443,1.896-4.34,2.43c-0.088,0.033-0.172,0.064-0.253,0.111
			c-0.127,0.071-2.184,1.295-3.52,4.422c-1.337-3.127-3.391-4.351-3.517-4.422c-0.082-0.047-0.168-0.078-0.252-0.111
			c-0.897-0.533-3.43-2.213-4.341-2.43c-0.006,0-0.01-0.002-0.014-0.004l-1.3,1.363l-1.339-1.348
			c-0.532,0.131-6.911,3.863-9.485,1.617c0.809-0.94,1.045-2.301,0.493-3.498c-4.742-10.263-8.485-18.367-14.865-22.281
			c-0.166-0.103-0.341-0.181-0.52-0.25c-0.936-0.618-1.989-1.071-3.06-1.328c-0.006-0.002-0.015-0.003-0.021-0.004l-2.031,2.133
			l-2.096-2.109c-0.835,0.205-1.66,0.527-2.425,0.956c-0.16,0.041-1.091,0.59-2.118,1.251c-1.242,0.69-9.186,5.546-14.413,19.886
			c-0.626,1.719,0.261,3.62,1.98,4.247c0.371,0.138,0.756,0.201,1.132,0.201c1.354,0,2.625-0.834,3.114-2.18
			c1.92-5.27,4.2-8.974,6.212-11.51c-0.002,0.755-0.01,1.214,0.006,1.17V63.89c0,1.162,0.295,2.223,0.801,3.16l0.002,31.08
			c0,2.131,1.728,3.857,3.857,3.857l0,0c2.132,0,3.861-1.729,3.861-3.857V71.31c0.029,0,0.059,0.002,0.089,0.002
			c0.154,0,0.306-0.012,0.46-0.02L21.712,98.13c0,2.131,1.729,3.858,3.86,3.858c2.132,0.001,3.859-1.728,3.859-3.858l0.002-31.271
			c0-0.177-0.016-0.347-0.038-0.517c0.299-0.754,0.469-1.574,0.469-2.453V52.576c1.944,3.328,3.842,7.431,5.958,12.013
			c0.302,0.656,0.797,1.154,1.385,1.479c-0.09,0.642,0.116,1.313,0.619,1.796c2.387,2.279,4.456,3.062,6.286,3.062
			c0.877,0,1.698-0.18,2.471-0.463v3.543l-2.218,12.065h2.729v13.702c0,1.361,1.104,2.467,2.467,2.467
			c1.361,0,2.465-1.104,2.465-2.467v-13.7h0.352l-0.002,13.702c0,1.361,1.105,2.467,2.467,2.467
			c1.361,0.001,2.467-1.104,2.467-2.467l0.002-13.702h2.38l-2.106-12.033v-2.712c0.639,1.115,1.234,2.833,1.234,5.383
			c0,1.055,0.855,1.91,1.912,1.91c0.276,0,0.537-0.062,0.774-0.168c0.237,0.105,0.5,0.168,0.775,0.168
			c1.057,0,1.912-0.855,1.912-1.91c0-2.55,0.596-4.268,1.234-5.383v2.712l-2.105,12.032h2.381l0.002,13.702
			c0,1.362,1.104,2.468,2.467,2.467c1.361,0,2.464-1.104,2.464-2.467V86.074h0.354l-0.002,13.702c0,1.361,1.104,2.467,2.467,2.467
			s2.466-1.104,2.466-2.467V86.074h2.73l-2.219-12.065v-3.543c0.772,0.283,1.594,0.463,2.472,0.463c1.828,0,3.898-0.783,6.285-3.062
			c0.503-0.48,0.708-1.154,0.618-1.796c0.589-0.325,1.084-0.823,1.387-1.479c2.115-4.582,4.012-8.685,5.958-12.013v5.468
			l-4.643,29.235c0,0,2.011,0.678,5.074,1.306v9.545c0,2.131,1.728,3.858,3.859,3.857c2.133,0,3.86-1.729,3.858-3.857v-8.558
			c0.181,0.008,0.363,0.017,0.545,0.022v8.533c0,2.131,1.73,3.858,3.86,3.858c0.002,0,0.002,0,0.002,0
			c2.131,0,3.858-1.728,3.858-3.858v-9.123c1.772-0.369,3.503-0.925,5.116-1.727l-4.313-28.162v-7.086
			c0.021,0.06,0.04,0.124,0.061,0.183c0.027-0.327,0.109-0.637,0.227-0.93c1.922,2.518,4.05,6.091,5.858,11.054
			c0.488,1.346,1.761,2.18,3.114,2.18c0.373,0,0.758-0.063,1.132-0.2C122.481,63.69,123.368,61.789,122.743,60.071z"/>
	</g>
</g>
<g>
</g>
<g>
</g>
<g>
</g>
<g>
</g>
<g>
</g>
<g>
</g>
<g>
</g>
<g>
</g>
<g>
</g>
<g>
</g>
<g>
</g>
<g>
</g>
<g>
</g>
<g>
</g>
<g>
</g>
</svg>
